<svg width="54" height="54" viewBox="0 0 54 54" fill="none" xmlns="http://www.w3.org/2000/svg">
<path d="M54 27C54 41.9117 41.9117 54 27 54C12.0883 54 0 41.9117 0 27C0 12.0883 12.0883 0 27 0C41.9117 0 54 12.0883 54 27Z" fill="white"/>
<path d="M23.5398 41H18.6438V13.976H23.5398V41ZM22.8198 13.976H29.4918C32.4998 13.976 34.8358 14.728 36.4998 16.232C38.1638 17.736 38.9958 20.008 38.9958 23.048C38.9958 25.704 38.1318 27.784 36.4038 29.288C34.7078 30.792 32.4038 31.544 29.4918 31.544H22.8198V27.944H28.8198C30.5478 27.944 31.9398 27.528 32.9958 26.696C34.0518 25.864 34.5798 24.616 34.5798 22.952C34.5798 21.256 34.0518 20.008 32.9958 19.208C31.9718 18.376 30.5798 17.96 28.8198 17.96H22.8198V13.976Z" fill="black"/>
<path d="M39.6221 41C38.4701 41 37.6861 40.712 37.2701 40.136C36.8861 39.56 36.6941 38.856 36.6941 38.024C36.6941 37.256 36.8861 36.584 37.2701 36.008C37.6861 35.432 38.4701 35.144 39.6221 35.144C40.7101 35.144 41.4461 35.432 41.8301 36.008C42.2461 36.584 42.4541 37.256 42.4541 38.024C42.4541 38.856 42.2461 39.56 41.8301 40.136C41.4461 40.712 40.7101 41 39.6221 41Z" fill="#FF4136"/>
</svg>
